name ../Passive_Flexion/flexion_ang.mot
datacolumns   7
datarows 75
range   20.00000000 20.74000000
cursor 1.0 1.0 0.0
keys m_key
wrap
enforce_loops no
enforce_constraints no
calc_derivatives -1.000000
event_color 0.000000 0.000000 0.000000
endheader
            time     knee_angle_r       knee_add_r       knee_rot_r        knee_tx_r        knee_ty_r        knee_tz_r 
     20.00000000     -97.55282581       0.00000000       0.00000000      -0.00600000      -0.45000000       0.00000000 
     20.01000000     -97.57703728       0.00000000       0.00000000      -0.00600000      -0.45000000       0.00000000 
     20.02000000     -97.60113135       0.00000000       0.00000000      -0.00600000      -0.45000000       0.00000000 
     20.03000000     -97.62510797       0.00000000       0.00000000      -0.00600000      -0.45000000       0.00000000 
     20.04000000     -97.64896708       0.00000000       0.00000000      -0.00600000      -0.45000000       0.00000000 
     20.05000000     -97.67270862       0.00000000       0.00000000      -0.00600000      -0.45000000       0.00000000 
     20.06000000     -97.69633253       0.00000000       0.00000000      -0.00600000      -0.45000000       0.00000000 
     20.07000000     -97.71983875       0.00000000       0.00000000      -0.00600000      -0.45000000       0.00000000 
     20.08000000     -97.74322724       0.00000000       0.00000000      -0.00600000      -0.45000000       0.00000000 
     20.09000000     -97.76649792       0.00000000       0.00000000      -0.00600000      -0.45000000       0.00000000 
     20.10000000     -97.78965074       0.00000000       0.00000000      -0.00600000      -0.45000000       0.00000000 
     20.11000000     -97.81268565       0.00000000       0.00000000      -0.00600000      -0.45000000       0.00000000 
     20.12000000     -97.83560258       0.00000000       0.00000000      -0.00600000      -0.45000000       0.00000000 
     20.13000000     -97.85840148       0.00000000       0.00000000      -0.00600000      -0.45000000       0.00000000 
     20.14000000     -97.88108230       0.00000000       0.00000000      -0.00600000      -0.45000000       0.00000000 
     20.15000000     -97.90364497       0.00000000       0.00000000      -0.00600000      -0.45000000       0.00000000 
     20.16000000     -97.92608945       0.00000000       0.00000000      -0.00600000      -0.45000000       0.00000000 
     20.17000000     -97.94841568       0.00000000       0.00000000      -0.00600000      -0.45000000       0.00000000 
     20.18000000     -97.97062359       0.00000000       0.00000000      -0.00600000      -0.45000000       0.00000000 
     20.19000000     -97.99271315       0.00000000       0.00000000      -0.00600000      -0.45000000       0.00000000 
     20.20000000     -98.01468428       0.00000000       0.00000000      -0.00600000      -0.45000000       0.00000000 
     20.21000000     -98.03653695       0.00000000       0.00000000      -0.00600000      -0.45000000       0.00000000 
     20.22000000     -98.05827109       0.00000000       0.00000000      -0.00600000      -0.45000000       0.00000000 
     20.23000000     -98.07988665       0.00000000       0.00000000      -0.00600000      -0.45000000       0.00000000 
     20.24000000     -98.10138358       0.00000000       0.00000000      -0.00600000      -0.45000000       0.00000000 
     20.25000000     -98.12276182       0.00000000       0.00000000      -0.00600000      -0.45000000       0.00000000 
     20.26000000     -98.14402133       0.00000000       0.00000000      -0.00600000      -0.45000000       0.00000000 
     20.27000000     -98.16516204       0.00000000       0.00000000      -0.00600000      -0.45000000       0.00000000 
     20.28000000     -98.18618391       0.00000000       0.00000000      -0.00600000      -0.45000000       0.00000000 
     20.29000000     -98.20708689       0.00000000       0.00000000      -0.00600000      -0.45000000       0.00000000 
     20.30000000     -98.22787092       0.00000000       0.00000000      -0.00600000      -0.45000000       0.00000000 
     20.31000000     -98.24853596       0.00000000       0.00000000      -0.00600000      -0.45000000       0.00000000 
     20.32000000     -98.26908194       0.00000000       0.00000000      -0.00600000      -0.45000000       0.00000000 
     20.33000000     -98.28950883       0.00000000       0.00000000      -0.00600000      -0.45000000       0.00000000 
     20.34000000     -98.30981656       0.00000000       0.00000000      -0.00600000      -0.45000000       0.00000000 
     20.35000000     -98.33000510       0.00000000       0.00000000      -0.00600000      -0.45000000       0.00000000 
     20.36000000     -98.35007439       0.00000000       0.00000000      -0.00600000      -0.45000000       0.00000000 
     20.37000000     -98.37002438       0.00000000       0.00000000      -0.00600000      -0.45000000       0.00000000 
     20.38000000     -98.38985502       0.00000000       0.00000000      -0.00600000      -0.45000000       0.00000000 
     20.39000000     -98.40956626       0.00000000       0.00000000      -0.00600000      -0.45000000       0.00000000 
     20.40000000     -98.42915806       0.00000000       0.00000000      -0.00600000      -0.45000000       0.00000000 
     20.41000000     -98.44863036       0.00000000       0.00000000      -0.00600000      -0.45000000       0.00000000 
     20.42000000     -98.46798312       0.00000000       0.00000000      -0.00600000      -0.45000000       0.00000000 
     20.43000000     -98.48721629       0.00000000       0.00000000      -0.00600000      -0.45000000       0.00000000 
     20.44000000     -98.50632982       0.00000000       0.00000000      -0.00600000      -0.45000000       0.00000000 
     20.45000000     -98.52532367       0.00000000       0.00000000      -0.00600000      -0.45000000       0.00000000 
     20.46000000     -98.54419779       0.00000000       0.00000000      -0.00600000      -0.45000000       0.00000000 
     20.47000000     -98.56295213       0.00000000       0.00000000      -0.00600000      -0.45000000       0.00000000 
     20.48000000     -98.58158665       0.00000000       0.00000000      -0.00600000      -0.45000000       0.00000000 
     20.49000000     -98.60010129       0.00000000       0.00000000      -0.00600000      -0.45000000       0.00000000 
     20.50000000     -98.61849602       0.00000000       0.00000000      -0.00600000      -0.45000000       0.00000000 
     20.51000000     -98.63677079       0.00000000       0.00000000      -0.00600000      -0.45000000       0.00000000 
     20.52000000     -98.65492555       0.00000000       0.00000000      -0.00600000      -0.45000000       0.00000000 
     20.53000000     -98.67296026       0.00000000       0.00000000      -0.00600000      -0.45000000       0.00000000 
     20.54000000     -98.69087487       0.00000000       0.00000000      -0.00600000      -0.45000000       0.00000000 
     20.55000000     -98.70866935       0.00000000       0.00000000      -0.00600000      -0.45000000       0.00000000 
     20.56000000     -98.72634364       0.00000000       0.00000000      -0.00600000      -0.45000000       0.00000000 
     20.57000000     -98.74389770       0.00000000       0.00000000      -0.00600000      -0.45000000       0.00000000 
     20.58000000     -98.76133150       0.00000000       0.00000000      -0.00600000      -0.45000000       0.00000000 
     20.59000000     -98.77864497       0.00000000       0.00000000      -0.00600000      -0.45000000       0.00000000 
     20.60000000     -98.79583810       0.00000000       0.00000000      -0.00600000      -0.45000000       0.00000000 
     20.61000000     -98.81291082       0.00000000       0.00000000      -0.00600000      -0.45000000       0.00000000 
     20.62000000     -98.82986310       0.00000000       0.00000000      -0.00600000      -0.45000000       0.00000000 
     20.63000000     -98.84669490       0.00000000       0.00000000      -0.00600000      -0.45000000       0.00000000 
     20.64000000     -98.86340618       0.00000000       0.00000000      -0.00600000      -0.45000000       0.00000000 
     20.65000000     -98.87999689       0.00000000       0.00000000      -0.00600000      -0.45000000       0.00000000 
     20.66000000     -98.89646699       0.00000000       0.00000000      -0.00600000      -0.45000000       0.00000000 
     20.67000000     -98.91281645       0.00000000       0.00000000      -0.00600000      -0.45000000       0.00000000 
     20.68000000     -98.92904522       0.00000000       0.00000000      -0.00600000      -0.45000000       0.00000000 
     20.69000000     -98.94515326       0.00000000       0.00000000      -0.00600000      -0.45000000       0.00000000 
     20.70000000     -98.96114053       0.00000000       0.00000000      -0.00600000      -0.45000000       0.00000000 
     20.71000000     -98.97700700       0.00000000       0.00000000      -0.00600000      -0.45000000       0.00000000 
     20.72000000     -98.99275262       0.00000000       0.00000000      -0.00600000      -0.45000000       0.00000000 
     20.73000000     -99.00837736       0.00000000       0.00000000      -0.00600000      -0.45000000       0.00000000 
     20.74000000     -99.02388117       0.00000000       0.00000000      -0.00600000      -0.45000000       0.00000000 
